<?xml version="1.0" encoding="UTF-8"?>
<!DOCTYPE svg PUBLIC "-//W3C//DTD SVG 1.1//EN" "http://www.w3.org/Graphics/SVG/1.1/DTD/svg11.dtd">
<svg xmlns="http://www.w3.org/2000/svg" version="1.1" width="892px" height="656px" style="shape-rendering:geometricPrecision; text-rendering:geometricPrecision; image-rendering:optimizeQuality; fill-rule:evenodd; clip-rule:evenodd" xmlns:xlink="http://www.w3.org/1999/xlink">
<g><path style="opacity:1" fill="#fefefe" d="M -0.5,-0.5 C 296.833,-0.5 594.167,-0.5 891.5,-0.5C 891.5,218.167 891.5,436.833 891.5,655.5C 594.167,655.5 296.833,655.5 -0.5,655.5C -0.5,565.833 -0.5,476.167 -0.5,386.5C 7.00608,389.431 14.3394,388.931 21.5,385C 23.7899,383.223 25.4566,381.056 26.5,378.5C 32.6165,368.241 30.9499,359.074 21.5,351C 14.3691,347.002 7.03579,346.502 -0.5,349.5C -0.5,232.833 -0.5,116.167 -0.5,-0.5 Z"/></g>
<g><path style="opacity:1" fill="#cacaca" d="M 399.5,55.5 C 310.167,55.5 220.833,55.5 131.5,55.5C 133.743,54.1883 136.41,53.5217 139.5,53.5C 226.328,54.1455 312.995,54.8122 399.5,55.5 Z"/></g>
<g><path style="opacity:1" fill="#d0d0d0" d="M 541.5,55.5 C 616.332,54.3344 691.332,54.1678 766.5,55C 767.416,55.2784 768.082,55.7784 768.5,56.5C 692.856,55.5121 617.189,55.1787 541.5,55.5 Z"/></g>
<g><path style="opacity:1" fill="#1b1b1b" d="M 131.5,55.5 C 220.833,55.5 310.167,55.5 399.5,55.5C 408.858,55.8448 416.192,59.8448 421.5,67.5C 424.172,73.4671 425.172,79.8004 424.5,86.5C 423.272,90.6826 421.438,94.6826 419,98.5C 411.644,108.678 404.144,118.678 396.5,128.5C 394.413,129.585 393.08,131.251 392.5,133.5C 390.413,134.585 389.08,136.251 388.5,138.5C 386.413,139.585 385.08,141.251 384.5,143.5C 382.413,144.585 381.08,146.251 380.5,148.5C 378.413,149.585 377.08,151.251 376.5,153.5C 374.413,154.585 373.08,156.251 372.5,158.5C 371.5,158.833 370.833,159.5 370.5,160.5C 369.147,162.128 369.481,163.462 371.5,164.5C 373.674,167.515 375.341,170.849 376.5,174.5C 376.427,176.027 377.094,177.027 378.5,177.5C 381.008,181.182 383.008,185.182 384.5,189.5C 384.427,191.027 385.094,192.027 386.5,192.5C 389.008,196.182 391.008,200.182 392.5,204.5C 392.427,206.027 393.094,207.027 394.5,207.5C 396.674,210.515 398.341,213.849 399.5,217.5C 399.427,219.027 400.094,220.027 401.5,220.5C 404.008,224.182 406.008,228.182 407.5,232.5C 407.427,234.027 408.094,235.027 409.5,235.5C 411.674,238.515 413.341,241.849 414.5,245.5C 414.427,247.027 415.094,248.027 416.5,248.5C 419.012,252.19 421.012,256.19 422.5,260.5C 422.427,262.027 423.094,263.027 424.5,263.5C 427.012,267.19 429.012,271.19 430.5,275.5C 430.427,277.027 431.094,278.027 432.5,278.5C 435.008,282.182 437.008,286.182 438.5,290.5C 438.427,292.027 439.094,293.027 440.5,293.5C 442.674,296.515 444.341,299.849 445.5,303.5C 445.427,305.027 446.094,306.027 447.5,306.5C 450.012,310.19 452.012,314.19 453.5,318.5C 453.427,320.027 454.094,321.027 455.5,321.5C 458.012,325.19 460.012,329.19 461.5,333.5C 461.427,335.027 462.094,336.027 463.5,336.5C 466.008,340.182 468.008,344.182 469.5,348.5C 469.427,350.027 470.094,351.027 471.5,351.5C 477.479,360.993 484.812,369.493 493.5,377C 494.167,377.667 494.833,377.667 495.5,377C 517.318,348.69 539.651,320.857 562.5,293.5C 564.587,292.415 565.92,290.749 566.5,288.5C 568.587,287.415 569.92,285.749 570.5,283.5C 615.413,225.585 661.08,168.251 707.5,111.5C 708.404,110.791 708.737,109.791 708.5,108.5C 657.997,108.168 607.664,108.501 557.5,109.5C 538.584,133.015 519.917,156.682 501.5,180.5C 499.413,181.585 498.08,183.251 497.5,185.5C 495.413,186.585 494.08,188.251 493.5,190.5C 489.078,194.587 485.411,199.254 482.5,204.5C 480.413,205.585 479.08,207.251 478.5,209.5C 476.413,210.585 475.08,212.251 474.5,214.5C 469.518,220.429 464.518,226.429 459.5,232.5C 458.311,233.429 456.978,233.762 455.5,233.5C 455.598,231.447 454.931,229.78 453.5,228.5C 453.573,226.973 452.906,225.973 451.5,225.5C 450.341,221.849 448.674,218.515 446.5,215.5C 446.573,213.973 445.906,212.973 444.5,212.5C 443.341,208.849 441.674,205.515 439.5,202.5C 439.573,200.973 438.906,199.973 437.5,199.5C 435.872,194.91 433.705,190.577 431,186.5C 429.913,183.386 430.746,181.053 433.5,179.5C 435.587,178.415 436.92,176.749 437.5,174.5C 439.587,173.415 440.92,171.749 441.5,169.5C 443.587,168.415 444.92,166.749 445.5,164.5C 453.746,152.585 462.746,141.252 472.5,130.5C 474.587,129.415 475.92,127.749 476.5,125.5C 478.587,124.415 479.92,122.749 480.5,120.5C 482.587,119.415 483.92,117.749 484.5,115.5C 491.793,105.54 499.46,95.8734 507.5,86.5C 509.587,85.4154 510.92,83.7488 511.5,81.5C 513.587,80.4154 514.92,78.7488 515.5,76.5C 521.206,65.7902 529.873,58.7902 541.5,55.5C 617.189,55.1787 692.856,55.5121 768.5,56.5C 792.919,63.3603 798.419,77.6937 785,99.5C 696.596,210.394 608.429,321.394 520.5,432.5C 516.872,435.432 516.539,438.766 519.5,442.5C 535.849,471.868 552.182,501.202 568.5,530.5C 620.664,531.499 672.997,531.832 725.5,531.5C 725.737,530.209 725.404,529.209 724.5,528.5C 714.232,507.914 703.565,487.581 692.5,467.5C 692.573,465.973 691.906,464.973 690.5,464.5C 678.413,440.658 666.08,416.991 653.5,393.5C 653.573,391.973 652.906,390.973 651.5,390.5C 651.5,390.167 651.5,389.833 651.5,389.5C 651.573,387.973 650.906,386.973 649.5,386.5C 646.418,380.001 643.085,373.668 639.5,367.5C 639.573,365.973 638.906,364.973 637.5,364.5C 637.107,362.716 636.441,361.05 635.5,359.5C 635.704,357.315 636.37,355.315 637.5,353.5C 647.595,340.227 657.928,327.061 668.5,314C 669.635,313.251 670.635,313.417 671.5,314.5C 711.187,389.881 751.354,464.881 792,539.5C 804.574,566.198 796.407,581.364 767.5,585C 694.833,585.667 622.167,585.667 549.5,585C 541.926,584.482 535.759,581.315 531,575.5C 528.473,571.104 525.973,566.771 523.5,562.5C 523.573,560.973 522.906,559.973 521.5,559.5C 517.562,550.913 513.228,542.58 508.5,534.5C 508.573,532.973 507.906,531.973 506.5,531.5C 505.008,527.182 503.008,523.182 500.5,519.5C 500.573,517.973 499.906,516.973 498.5,516.5C 497.341,512.849 495.674,509.515 493.5,506.5C 493.573,504.973 492.906,503.973 491.5,503.5C 490.008,499.182 488.008,495.182 485.5,491.5C 485.573,489.973 484.906,488.973 483.5,488.5C 483.388,485.023 481.721,483.523 478.5,484C 475.285,487.709 472.285,491.542 469.5,495.5C 467.413,496.585 466.08,498.251 465.5,500.5C 448.937,521.91 432.104,543.244 415,564.5C 410.5,570.333 405.333,575.5 399.5,580C 386.33,588.721 374.83,586.888 365,574.5C 342.38,535.598 321.047,495.931 301,455.5C 287.442,433.72 275.442,411.054 265,387.5C 212.173,290.517 159.839,193.183 108,95.5C 99.6148,72.601 107.448,59.2677 131.5,55.5 Z"/></g>
<g><path style="opacity:1" fill="#656565" d="M 421.5,67.5 C 423.61,68.4525 424.777,70.1192 425,72.5C 425.815,77.3522 425.648,82.0189 424.5,86.5C 425.172,79.8004 424.172,73.4671 421.5,67.5 Z"/></g>
<g><path style="opacity:1" fill="#5c5c5c" d="M 515.5,76.5 C 514.92,78.7488 513.587,80.4154 511.5,81.5C 512.08,79.2512 513.413,77.5846 515.5,76.5 Z"/></g>
<g><path style="opacity:1" fill="#5e5e5e" d="M 511.5,81.5 C 510.92,83.7488 509.587,85.4154 507.5,86.5C 508.08,84.2512 509.413,82.5846 511.5,81.5 Z"/></g>
<g><path style="opacity:1" fill="#696969" d="M 557.5,109.5 C 607.664,108.501 657.997,108.168 708.5,108.5C 708.737,109.791 708.404,110.791 707.5,111.5C 657.844,109.505 607.844,108.838 557.5,109.5 Z"/></g>
<g><path style="opacity:1" fill="#fdfdfd" d="M 312.5,166.5 C 312.166,169.491 313.166,171.824 315.5,173.5C 339.006,216.509 362.006,259.842 384.5,303.5C 384.427,305.027 385.094,306.027 386.5,306.5C 391.228,314.58 395.562,322.913 399.5,331.5C 399.427,333.027 400.094,334.027 401.5,334.5C 405.751,342.001 409.751,349.668 413.5,357.5C 413.427,359.027 414.094,360.027 415.5,360.5C 416.441,362.05 417.107,363.716 417.5,365.5C 417.427,367.027 418.094,368.027 419.5,368.5C 423.751,376.001 427.751,383.668 431.5,391.5C 431.427,393.027 432.094,394.027 433.5,394.5C 435.674,397.515 437.341,400.849 438.5,404.5C 438.427,406.027 439.094,407.027 440.5,407.5C 442.674,410.515 444.341,413.849 445.5,417.5C 445.427,419.027 446.094,420.027 447.5,420.5C 449.008,422.181 450.008,424.181 450.5,426.5C 450.935,429.838 450.268,432.838 448.5,435.5C 446.453,437.55 444.786,439.883 443.5,442.5C 441.896,443.287 441.229,444.62 441.5,446.5C 425.075,466.768 408.408,486.935 391.5,507C 390.551,507.617 389.718,507.451 389,506.5C 384.143,498.112 379.31,489.778 374.5,481.5C 374.573,479.973 373.906,478.973 372.5,478.5C 370.674,473.516 368.341,468.849 365.5,464.5C 365.573,462.973 364.906,461.973 363.5,461.5C 362.008,457.182 360.008,453.182 357.5,449.5C 357.573,447.973 356.906,446.973 355.5,446.5C 353.674,441.516 351.341,436.849 348.5,432.5C 348.573,430.973 347.906,429.973 346.5,429.5C 345.008,425.182 343.008,421.182 340.5,417.5C 340.573,415.973 339.906,414.973 338.5,414.5C 337.008,410.182 335.008,406.182 332.5,402.5C 332.573,400.973 331.906,399.973 330.5,399.5C 328.674,394.516 326.341,389.849 323.5,385.5C 323.573,383.973 322.906,382.973 321.5,382.5C 319.674,377.516 317.341,372.849 314.5,368.5C 314.573,366.973 313.906,365.973 312.5,365.5C 268.613,282.728 224.446,200.062 180,117.5C 178.259,114.691 177.092,111.691 176.5,108.5C 231.501,109.217 286.501,109.551 341.5,109.5C 333.192,120.975 324.692,132.308 316,143.5C 311.705,150.746 310.538,158.413 312.5,166.5 Z"/></g>
<g><path style="opacity:1" fill="#5b5b5b" d="M 484.5,115.5 C 483.92,117.749 482.587,119.415 480.5,120.5C 481.08,118.251 482.413,116.585 484.5,115.5 Z"/></g>
<g><path style="opacity:1" fill="#5c5c5c" d="M 480.5,120.5 C 479.92,122.749 478.587,124.415 476.5,125.5C 477.08,123.251 478.413,121.585 480.5,120.5 Z"/></g>
<g><path style="opacity:1" fill="#5e5e5e" d="M 476.5,125.5 C 475.92,127.749 474.587,129.415 472.5,130.5C 473.08,128.251 474.413,126.585 476.5,125.5 Z"/></g>
<g><path style="opacity:1" fill="#afafaf" d="M 396.5,128.5 C 395.92,130.749 394.587,132.415 392.5,133.5C 393.08,131.251 394.413,129.585 396.5,128.5 Z"/></g>
<g><path style="opacity:1" fill="#adadad" d="M 392.5,133.5 C 391.92,135.749 390.587,137.415 388.5,138.5C 389.08,136.251 390.413,134.585 392.5,133.5 Z"/></g>
<g><path style="opacity:1" fill="#acacac" d="M 388.5,138.5 C 387.92,140.749 386.587,142.415 384.5,143.5C 385.08,141.251 386.413,139.585 388.5,138.5 Z"/></g>
<g><path style="opacity:1" fill="#aaaaaa" d="M 384.5,143.5 C 383.92,145.749 382.587,147.415 380.5,148.5C 381.08,146.251 382.413,144.585 384.5,143.5 Z"/></g>
<g><path style="opacity:1" fill="#a8a8a8" d="M 380.5,148.5 C 379.92,150.749 378.587,152.415 376.5,153.5C 377.08,151.251 378.413,149.585 380.5,148.5 Z"/></g>
<g><path style="opacity:1" fill="#a6a6a6" d="M 376.5,153.5 C 375.92,155.749 374.587,157.415 372.5,158.5C 373.08,156.251 374.413,154.585 376.5,153.5 Z"/></g>
<g><path style="opacity:1" fill="#7b7b7b" d="M 370.5,160.5 C 370.833,161.833 371.167,163.167 371.5,164.5C 369.481,163.462 369.147,162.128 370.5,160.5 Z"/></g>
<g><path style="opacity:1" fill="#5c5c5c" d="M 445.5,164.5 C 444.92,166.749 443.587,168.415 441.5,169.5C 442.08,167.251 443.413,165.585 445.5,164.5 Z"/></g>
<g><path style="opacity:1" fill="#aeaeae" d="M 312.5,166.5 C 314.065,168.509 315.065,170.843 315.5,173.5C 313.166,171.824 312.166,169.491 312.5,166.5 Z"/></g>
<g><path style="opacity:1" fill="#5e5e5e" d="M 441.5,169.5 C 440.92,171.749 439.587,173.415 437.5,174.5C 438.08,172.251 439.413,170.585 441.5,169.5 Z"/></g>
<g><path style="opacity:1" fill="#818181" d="M 376.5,174.5 C 377.906,174.973 378.573,175.973 378.5,177.5C 377.094,177.027 376.427,176.027 376.5,174.5 Z"/></g>
<g><path style="opacity:1" fill="#606060" d="M 437.5,174.5 C 436.92,176.749 435.587,178.415 433.5,179.5C 434.08,177.251 435.413,175.585 437.5,174.5 Z"/></g>
<g><path style="opacity:1" fill="#aeaeae" d="M 501.5,180.5 C 500.92,182.749 499.587,184.415 497.5,185.5C 498.08,183.251 499.413,181.585 501.5,180.5 Z"/></g>
<g><path style="opacity:1" fill="#ababab" d="M 497.5,185.5 C 496.92,187.749 495.587,189.415 493.5,190.5C 494.08,188.251 495.413,186.585 497.5,185.5 Z"/></g>
<g><path style="opacity:1" fill="#7e7e7e" d="M 384.5,189.5 C 385.906,189.973 386.573,190.973 386.5,192.5C 385.094,192.027 384.427,191.027 384.5,189.5 Z"/></g>
<g><path style="opacity:1" fill="#8e8e8e" d="M 437.5,199.5 C 438.906,199.973 439.573,200.973 439.5,202.5C 438.094,202.027 437.427,201.027 437.5,199.5 Z"/></g>
<g><path style="opacity:1" fill="#7d7d7d" d="M 392.5,204.5 C 393.906,204.973 394.573,205.973 394.5,207.5C 393.094,207.027 392.427,206.027 392.5,204.5 Z"/></g>
<g><path style="opacity:1" fill="#afafaf" d="M 482.5,204.5 C 481.92,206.749 480.587,208.415 478.5,209.5C 479.08,207.251 480.413,205.585 482.5,204.5 Z"/></g>
<g><path style="opacity:1" fill="#acacac" d="M 478.5,209.5 C 477.92,211.749 476.587,213.415 474.5,214.5C 475.08,212.251 476.413,210.585 478.5,209.5 Z"/></g>
<g><path style="opacity:1" fill="#8b8b8b" d="M 444.5,212.5 C 445.906,212.973 446.573,213.973 446.5,215.5C 445.094,215.027 444.427,214.027 444.5,212.5 Z"/></g>
<g><path style="opacity:1" fill="#818181" d="M 399.5,217.5 C 400.906,217.973 401.573,218.973 401.5,220.5C 400.094,220.027 399.427,219.027 399.5,217.5 Z"/></g>
<g><path style="opacity:1" fill="#878787" d="M 451.5,225.5 C 452.906,225.973 453.573,226.973 453.5,228.5C 452.094,228.027 451.427,227.027 451.5,225.5 Z"/></g>
<g><path style="opacity:1" fill="#7f7f7f" d="M 407.5,232.5 C 408.906,232.973 409.573,233.973 409.5,235.5C 408.094,235.027 407.427,234.027 407.5,232.5 Z"/></g>
<g><path style="opacity:1" fill="#838383" d="M 414.5,245.5 C 415.906,245.973 416.573,246.973 416.5,248.5C 415.094,248.027 414.427,247.027 414.5,245.5 Z"/></g>
<g><path style="opacity:1" fill="#818181" d="M 422.5,260.5 C 423.906,260.973 424.573,261.973 424.5,263.5C 423.094,263.027 422.427,262.027 422.5,260.5 Z"/></g>
<g><path style="opacity:1" fill="#7f7f7f" d="M 430.5,275.5 C 431.906,275.973 432.573,276.973 432.5,278.5C 431.094,278.027 430.427,277.027 430.5,275.5 Z"/></g>
<g><path style="opacity:1" fill="#595959" d="M 570.5,283.5 C 569.92,285.749 568.587,287.415 566.5,288.5C 567.08,286.251 568.413,284.585 570.5,283.5 Z"/></g>
<g><path style="opacity:1" fill="#5b5b5b" d="M 566.5,288.5 C 565.92,290.749 564.587,292.415 562.5,293.5C 563.08,291.251 564.413,289.585 566.5,288.5 Z"/></g>
<g><path style="opacity:1" fill="#7e7e7e" d="M 438.5,290.5 C 439.906,290.973 440.573,291.973 440.5,293.5C 439.094,293.027 438.427,292.027 438.5,290.5 Z"/></g>
<g><path style="opacity:1" fill="#909090" d="M 384.5,303.5 C 385.906,303.973 386.573,304.973 386.5,306.5C 385.094,306.027 384.427,305.027 384.5,303.5 Z"/></g>
<g><path style="opacity:1" fill="#828282" d="M 445.5,303.5 C 446.906,303.973 447.573,304.973 447.5,306.5C 446.094,306.027 445.427,305.027 445.5,303.5 Z"/></g>
<g><path style="opacity:1" fill="#808080" d="M 453.5,318.5 C 454.906,318.973 455.573,319.973 455.5,321.5C 454.094,321.027 453.427,320.027 453.5,318.5 Z"/></g>
<g><path style="opacity:1" fill="#8d8d8d" d="M 399.5,331.5 C 400.906,331.973 401.573,332.973 401.5,334.5C 400.094,334.027 399.427,333.027 399.5,331.5 Z"/></g>
<g><path style="opacity:1" fill="#7e7e7e" d="M 461.5,333.5 C 462.906,333.973 463.573,334.973 463.5,336.5C 462.094,336.027 461.427,335.027 461.5,333.5 Z"/></g>
<g><path style="opacity:1" fill="#fdfdfd" d="M 26.5,378.5 C 18.9246,386.653 9.92463,388.653 -0.5,384.5C -0.5,373.5 -0.5,362.5 -0.5,351.5C 12.5771,346.244 22.0771,349.91 28,362.5C 28.8501,367.983 28.3501,373.317 26.5,378.5 Z"/></g>
<g><path style="opacity:1" fill="#7c7c7c" d="M 469.5,348.5 C 470.906,348.973 471.573,349.973 471.5,351.5C 470.094,351.027 469.427,350.027 469.5,348.5 Z"/></g>
<g><path style="opacity:1" fill="#585858" d="M 637.5,353.5 C 636.37,355.315 635.704,357.315 635.5,359.5C 633.984,356.92 634.651,354.92 637.5,353.5 Z"/></g>
<g><path style="opacity:1" fill="#838383" d="M 413.5,357.5 C 414.906,357.973 415.573,358.973 415.5,360.5C 414.094,360.027 413.427,359.027 413.5,357.5 Z"/></g>
<g><path style="opacity:1" fill="#8e8e8e" d="M 637.5,364.5 C 638.906,364.973 639.573,365.973 639.5,367.5C 638.094,367.027 637.427,366.027 637.5,364.5 Z"/></g>
<g><path style="opacity:1" fill="#757575" d="M 26.5,378.5 C 28.3501,373.317 28.8501,367.983 28,362.5C 22.0771,349.91 12.5771,346.244 -0.5,351.5C -0.5,350.833 -0.5,350.167 -0.5,349.5C 7.03579,346.502 14.3691,347.002 21.5,351C 30.9499,359.074 32.6165,368.241 26.5,378.5 Z"/></g>
<g><path style="opacity:1" fill="#797979" d="M 312.5,365.5 C 313.906,365.973 314.573,366.973 314.5,368.5C 313.094,368.027 312.427,367.027 312.5,365.5 Z"/></g>
<g><path style="opacity:1" fill="#8c8c8c" d="M 417.5,365.5 C 418.906,365.973 419.573,366.973 419.5,368.5C 418.094,368.027 417.427,367.027 417.5,365.5 Z"/></g>
<g><path style="opacity:1" fill="#777777" d="M 321.5,382.5 C 322.906,382.973 323.573,383.973 323.5,385.5C 322.094,385.027 321.427,384.027 321.5,382.5 Z"/></g>
<g><path style="opacity:1" fill="#818181" d="M 26.5,378.5 C 25.4566,381.056 23.7899,383.223 21.5,385C 14.3394,388.931 7.00608,389.431 -0.5,386.5C -0.5,385.833 -0.5,385.167 -0.5,384.5C 9.92463,388.653 18.9246,386.653 26.5,378.5 Z"/></g>
<g><path style="opacity:1" fill="#7d7d7d" d="M 649.5,386.5 C 650.906,386.973 651.573,387.973 651.5,389.5C 650.094,389.027 649.427,388.027 649.5,386.5 Z"/></g>
<g><path style="opacity:1" fill="#818181" d="M 651.5,390.5 C 652.906,390.973 653.573,391.973 653.5,393.5C 652.094,393.027 651.427,392.027 651.5,390.5 Z"/></g>
<g><path style="opacity:1" fill="#8b8b8b" d="M 431.5,391.5 C 432.906,391.973 433.573,392.973 433.5,394.5C 432.094,394.027 431.427,393.027 431.5,391.5 Z"/></g>
<g><path style="opacity:1" fill="#777777" d="M 330.5,399.5 C 331.906,399.973 332.573,400.973 332.5,402.5C 331.094,402.027 330.427,401.027 330.5,399.5 Z"/></g>
<g><path style="opacity:1" fill="#8b8b8b" d="M 438.5,404.5 C 439.906,404.973 440.573,405.973 440.5,407.5C 439.094,407.027 438.427,406.027 438.5,404.5 Z"/></g>
<g><path style="opacity:1" fill="#797979" d="M 338.5,414.5 C 339.906,414.973 340.573,415.973 340.5,417.5C 339.094,417.027 338.427,416.027 338.5,414.5 Z"/></g>
<g><path style="opacity:1" fill="#8b8b8b" d="M 445.5,417.5 C 446.906,417.973 447.573,418.973 447.5,420.5C 446.094,420.027 445.427,419.027 445.5,417.5 Z"/></g>
<g><path style="opacity:1" fill="#7b7b7b" d="M 346.5,429.5 C 347.906,429.973 348.573,430.973 348.5,432.5C 347.094,432.027 346.427,431.027 346.5,429.5 Z"/></g>
<g><path style="opacity:1" fill="#656565" d="M 450.5,426.5 C 451.634,428.966 451.801,431.633 451,434.5C 450.329,435.252 449.496,435.586 448.5,435.5C 450.268,432.838 450.935,429.838 450.5,426.5 Z"/></g>
<g><path style="opacity:1" fill="#bababa" d="M 520.5,432.5 C 519.676,435.764 519.342,439.098 519.5,442.5C 516.539,438.766 516.872,435.432 520.5,432.5 Z"/></g>
<g><path style="opacity:1" fill="#878787" d="M 443.5,442.5 C 443.34,444.153 442.674,445.486 441.5,446.5C 441.229,444.62 441.896,443.287 443.5,442.5 Z"/></g>
<g><path style="opacity:1" fill="#7c7c7c" d="M 355.5,446.5 C 356.906,446.973 357.573,447.973 357.5,449.5C 356.094,449.027 355.427,448.027 355.5,446.5 Z"/></g>
<g><path style="opacity:1" fill="#7c7c7c" d="M 363.5,461.5 C 364.906,461.973 365.573,462.973 365.5,464.5C 364.094,464.027 363.427,463.027 363.5,461.5 Z"/></g>
<g><path style="opacity:1" fill="#8c8c8c" d="M 690.5,464.5 C 691.906,464.973 692.573,465.973 692.5,467.5C 691.094,467.027 690.427,466.027 690.5,464.5 Z"/></g>
<g><path style="opacity:1" fill="#7a7a7a" d="M 372.5,478.5 C 373.906,478.973 374.573,479.973 374.5,481.5C 373.094,481.027 372.427,480.027 372.5,478.5 Z"/></g>
<g><path style="opacity:1" fill="#8c8c8c" d="M 483.5,488.5 C 484.906,488.973 485.573,489.973 485.5,491.5C 484.094,491.027 483.427,490.027 483.5,488.5 Z"/></g>
<g><path style="opacity:1" fill="#a6a6a6" d="M 469.5,495.5 C 468.92,497.749 467.587,499.415 465.5,500.5C 466.08,498.251 467.413,496.585 469.5,495.5 Z"/></g>
<g><path style="opacity:1" fill="#8f8f8f" d="M 491.5,503.5 C 492.906,503.973 493.573,504.973 493.5,506.5C 492.094,506.027 491.427,505.027 491.5,503.5 Z"/></g>
<g><path style="opacity:1" fill="#8b8b8b" d="M 498.5,516.5 C 499.906,516.973 500.573,517.973 500.5,519.5C 499.094,519.027 498.427,518.027 498.5,516.5 Z"/></g>
<g><path style="opacity:1" fill="#c5c5c5" d="M 724.5,528.5 C 725.404,529.209 725.737,530.209 725.5,531.5C 672.997,531.832 620.664,531.499 568.5,530.5C 620.844,531.162 672.844,530.496 724.5,528.5 Z"/></g>
<g><path style="opacity:1" fill="#8e8e8e" d="M 506.5,531.5 C 507.906,531.973 508.573,532.973 508.5,534.5C 507.094,534.027 506.427,533.027 506.5,531.5 Z"/></g>
<g><path style="opacity:1" fill="#8c8c8c" d="M 521.5,559.5 C 522.906,559.973 523.573,560.973 523.5,562.5C 522.094,562.027 521.427,561.027 521.5,559.5 Z"/></g>
</svg>
